<svg width="131" height="87" viewBox="0 0 131 87" fill="none" xmlns="http://www.w3.org/2000/svg">
<path d="M13.8037 41.6708C13.8037 31.1242 24.1166 27.1079 33.7151 26.2025C37.4455 14.6496 48.8314 3 66.5098 3C85.2131 3 101.126 16.1626 103.404 37.8037C114.421 38.3451 128 44.6146 128 59.0726C128 73.7095 116.47 80.3416 102.379 80.3416H69.0719" stroke="url(#paint0_linear_677_131)" stroke-width="6" stroke-linejoin="round"/>
<path d="M30.1187 46.7016C30.1187 46.7016 34.8714 49.3365 37.8146 49.3365C40.7578 49.3365 41.3087 48.8312 43.4828 48.0972C44.1889 47.8588 45.977 46.462 45.977 46.462V52.211C45.977 52.211 40.729 49.9753 37.8146 49.9753C34.9002 49.9753 30.1187 51.7319 30.1187 51.7319V46.7016Z" fill="#037BBA"/>
<path d="M31.9853 49.3368C31.9853 49.3368 28.2089 55.0858 24.9889 55.0858C21.769 55.0858 19.1587 52.4046 19.1587 49.0973C19.1587 45.7899 21.769 43.1088 24.9889 43.1088C28.2089 43.1088 31.9853 49.3368 31.9853 49.3368Z" fill="#037BBA"/>
<path d="M43.8793 49.2596C43.8793 49.2596 48.8229 41.671 53.0381 41.671C57.2533 41.671 60.6704 45.2101 60.6704 49.5758C60.6704 53.9415 57.2533 57.4807 53.0381 57.4807C48.8229 57.4807 43.8793 49.2596 43.8793 49.2596Z" fill="#037BBA"/>
<ellipse cx="25.6667" cy="62.8792" rx="5.58808" ry="5.74003" fill="url(#paint1_linear_677_131)"/>
<ellipse cx="2.39489" cy="50.6908" rx="2.39489" ry="2.46001" fill="#037BBA"/>
<ellipse cx="11.9744" cy="50.6911" rx="3.99148" ry="4.10002" fill="#037BBA"/>
<ellipse cx="11.9744" cy="63.811" rx="3.99148" ry="4.10002" fill="url(#paint2_linear_677_131)"/>
<ellipse cx="11.9744" cy="79.509" rx="3.99148" ry="4.10002" fill="#08A9C9"/>
<ellipse cx="2.39489" cy="79.5087" rx="2.39489" ry="2.46001" fill="#08A9C9"/>
<ellipse cx="2.39489" cy="63.8109" rx="2.39489" ry="2.46001" fill="url(#paint3_linear_677_131)"/>
<path d="M46.0825 61.462C46.0825 61.462 50.8353 64.0971 53.7785 64.0971C56.7216 64.0971 57.2725 63.5917 59.4467 62.8577C60.1528 62.6193 61.9408 61.2225 61.9408 61.2225V66.9717C61.9408 66.9717 56.6928 64.7359 53.7785 64.7359C50.8641 64.7359 46.0825 66.4926 46.0825 66.4926V61.462Z" fill="url(#paint4_linear_677_131)"/>
<path d="M47.9491 64.0968C47.9491 64.0968 44.1728 69.846 40.9528 69.846C37.7329 69.846 35.1226 67.1647 35.1226 63.8572C35.1226 60.5497 37.7329 57.8684 40.9528 57.8684C44.1728 57.8684 47.9491 64.0968 47.9491 64.0968Z" fill="url(#paint5_linear_677_131)"/>
<path d="M59.8426 64.0205C59.8426 64.0205 64.7862 56.4315 69.0015 56.4315C73.2167 56.4315 76.6338 59.9707 76.6338 64.3367C76.6338 68.7026 73.2167 72.2419 69.0015 72.2419C64.7862 72.2419 59.8426 64.0205 59.8426 64.0205Z" fill="url(#paint6_linear_677_131)"/>
<path d="M30.1191 76.2209C30.1191 76.2209 34.8719 78.8558 37.8151 78.8558C40.7583 78.8558 41.3092 78.3505 43.4833 77.6165C44.1894 77.3781 45.9774 75.9813 45.9774 75.9813V81.7303C45.9774 81.7303 40.7295 79.4946 37.8151 79.4946C34.9007 79.4946 30.1191 81.2512 30.1191 81.2512V76.2209Z" fill="#08A9C9"/>
<path d="M31.9862 78.856C31.9862 78.856 28.2099 84.605 24.9899 84.605C21.77 84.605 19.1597 81.9239 19.1597 78.6165C19.1597 75.3091 21.77 72.628 24.9899 72.628C28.2099 72.628 31.9862 78.856 31.9862 78.856Z" fill="#08A9C9"/>
<path d="M43.8798 78.779C43.8798 78.779 48.8233 71.1903 53.0386 71.1903C57.2538 71.1903 60.6709 74.7294 60.6709 79.0952C60.6709 83.4609 57.2538 87 53.0386 87C48.8233 87 43.8798 78.779 43.8798 78.779Z" fill="#08A9C9"/>
<defs>
<linearGradient id="paint0_linear_677_131" x1="70.2743" y1="3" x2="70.2743" y2="80.3416" gradientUnits="userSpaceOnUse">
<stop stop-color="#037BBA"/>
<stop offset="0.265" stop-color="#1F94D1"/>
<stop offset="0.755" stop-color="#139BB7"/>
<stop offset="0.925" stop-color="#08A9C9"/>
</linearGradient>
<linearGradient id="paint1_linear_677_131" x1="25.6667" y1="57.1392" x2="25.6667" y2="68.6192" gradientUnits="userSpaceOnUse">
<stop stop-color="#037BBA"/>
<stop offset="0.265" stop-color="#1F94D1"/>
<stop offset="0.755" stop-color="#139BB7"/>
<stop offset="0.925" stop-color="#08A9C9"/>
</linearGradient>
<linearGradient id="paint2_linear_677_131" x1="11.9744" y1="59.7109" x2="11.9744" y2="67.911" gradientUnits="userSpaceOnUse">
<stop stop-color="#037BBA"/>
<stop offset="0.265" stop-color="#1F94D1"/>
<stop offset="0.755" stop-color="#139BB7"/>
<stop offset="0.925" stop-color="#08A9C9"/>
</linearGradient>
<linearGradient id="paint3_linear_677_131" x1="2.39489" y1="61.3509" x2="2.39489" y2="66.2709" gradientUnits="userSpaceOnUse">
<stop stop-color="#037BBA"/>
<stop offset="0.265" stop-color="#1F94D1"/>
<stop offset="0.755" stop-color="#139BB7"/>
<stop offset="0.925" stop-color="#08A9C9"/>
</linearGradient>
<linearGradient id="paint4_linear_677_131" x1="54.0117" y1="61.2225" x2="54.0117" y2="66.9717" gradientUnits="userSpaceOnUse">
<stop stop-color="#037BBA"/>
<stop offset="0.265" stop-color="#1F94D1"/>
<stop offset="0.755" stop-color="#139BB7"/>
<stop offset="0.925" stop-color="#08A9C9"/>
</linearGradient>
<linearGradient id="paint5_linear_677_131" x1="41.5358" y1="57.8684" x2="41.5358" y2="69.846" gradientUnits="userSpaceOnUse">
<stop stop-color="#037BBA"/>
<stop offset="0.265" stop-color="#1F94D1"/>
<stop offset="0.755" stop-color="#139BB7"/>
<stop offset="0.925" stop-color="#08A9C9"/>
</linearGradient>
<linearGradient id="paint6_linear_677_131" x1="68.2382" y1="72.2419" x2="68.2382" y2="56.4315" gradientUnits="userSpaceOnUse">
<stop offset="0.05" stop-color="#08A9C9"/>
<stop offset="0.215" stop-color="#139BB7"/>
<stop offset="0.74" stop-color="#1F94D1"/>
<stop offset="1" stop-color="#037BBA"/>
</linearGradient>
</defs>
</svg>
